<mxfile host="app.diagrams.net" agent="Mozilla/5.0 (Windows NT 10.0; Win64; x64) AppleWebKit/537.36 (KHTML, like Gecko) Chrome/131.0.0.0 Safari/537.36" version="25.0.3">
  <diagram name="Page-1" id="F1Ii1LjBEnUigLh_8ZeE">
    <mxGraphModel dx="5858" dy="743" grid="1" gridSize="10" guides="1" tooltips="1" connect="1" arrows="1" fold="1" page="1" pageScale="1" pageWidth="827" pageHeight="1169" math="0" shadow="0">
      <root>
        <mxCell id="0" />
        <mxCell id="1" parent="0" />
        <mxCell id="RgUEGCzLxgp7YQ4FfKnu-1" value="" style="edgeStyle=orthogonalEdgeStyle;rounded=0;orthogonalLoop=1;jettySize=auto;html=1;" edge="1" parent="1" source="RgUEGCzLxgp7YQ4FfKnu-2" target="RgUEGCzLxgp7YQ4FfKnu-5">
          <mxGeometry relative="1" as="geometry" />
        </mxCell>
        <mxCell id="RgUEGCzLxgp7YQ4FfKnu-2" value="Start" style="strokeWidth=2;html=1;shape=mxgraph.flowchart.terminator;whiteSpace=wrap;" vertex="1" parent="1">
          <mxGeometry x="780" y="200" width="100" height="60" as="geometry" />
        </mxCell>
        <mxCell id="RgUEGCzLxgp7YQ4FfKnu-3" value="Stop" style="strokeWidth=2;html=1;shape=mxgraph.flowchart.terminator;whiteSpace=wrap;" vertex="1" parent="1">
          <mxGeometry x="-3060" y="4480" width="100" height="60" as="geometry" />
        </mxCell>
        <mxCell id="RgUEGCzLxgp7YQ4FfKnu-4" style="edgeStyle=orthogonalEdgeStyle;rounded=0;orthogonalLoop=1;jettySize=auto;html=1;entryX=0.5;entryY=0;entryDx=0;entryDy=0;" edge="1" parent="1" source="RgUEGCzLxgp7YQ4FfKnu-5" target="RgUEGCzLxgp7YQ4FfKnu-7">
          <mxGeometry relative="1" as="geometry" />
        </mxCell>
        <mxCell id="RgUEGCzLxgp7YQ4FfKnu-5" value="Matrix1[5][5], Matrix2[5][5], &lt;br&gt;Matrix3[5][5], Matrix4[5][5] = 0&amp;nbsp;" style="rounded=0;whiteSpace=wrap;html=1;" vertex="1" parent="1">
          <mxGeometry x="731.25" y="300" width="197.5" height="60" as="geometry" />
        </mxCell>
        <mxCell id="RgUEGCzLxgp7YQ4FfKnu-6" style="edgeStyle=orthogonalEdgeStyle;rounded=0;orthogonalLoop=1;jettySize=auto;html=1;entryX=0.5;entryY=0;entryDx=0;entryDy=0;" edge="1" parent="1" source="RgUEGCzLxgp7YQ4FfKnu-7" target="RgUEGCzLxgp7YQ4FfKnu-9">
          <mxGeometry relative="1" as="geometry" />
        </mxCell>
        <mxCell id="RgUEGCzLxgp7YQ4FfKnu-7" value="rows1, cols1, rows2, cols2, &lt;br&gt;rows3, cols3, rows4, cols4 = 0&amp;nbsp;" style="rounded=0;whiteSpace=wrap;html=1;" vertex="1" parent="1">
          <mxGeometry x="731.25" y="390" width="198.75" height="60" as="geometry" />
        </mxCell>
        <mxCell id="RgUEGCzLxgp7YQ4FfKnu-8" style="edgeStyle=orthogonalEdgeStyle;rounded=0;orthogonalLoop=1;jettySize=auto;html=1;entryX=0.5;entryY=0;entryDx=0;entryDy=0;" edge="1" parent="1" source="RgUEGCzLxgp7YQ4FfKnu-9" target="RgUEGCzLxgp7YQ4FfKnu-11">
          <mxGeometry relative="1" as="geometry" />
        </mxCell>
        <mxCell id="RgUEGCzLxgp7YQ4FfKnu-9" value="i, j, k = 0&amp;nbsp;" style="rounded=0;whiteSpace=wrap;html=1;" vertex="1" parent="1">
          <mxGeometry x="731.25" y="490" width="198.75" height="60" as="geometry" />
        </mxCell>
        <mxCell id="RgUEGCzLxgp7YQ4FfKnu-10" style="edgeStyle=orthogonalEdgeStyle;rounded=0;orthogonalLoop=1;jettySize=auto;html=1;entryX=0.5;entryY=0;entryDx=0;entryDy=0;" edge="1" parent="1" source="RgUEGCzLxgp7YQ4FfKnu-11" target="RgUEGCzLxgp7YQ4FfKnu-13">
          <mxGeometry relative="1" as="geometry" />
        </mxCell>
        <mxCell id="RgUEGCzLxgp7YQ4FfKnu-11" value="OUTPUT &quot;Enter Matrix1 : &quot;" style="shape=parallelogram;perimeter=parallelogramPerimeter;whiteSpace=wrap;html=1;fixedSize=1;" vertex="1" parent="1">
          <mxGeometry x="718.6" y="590" width="224.06" height="60" as="geometry" />
        </mxCell>
        <mxCell id="RgUEGCzLxgp7YQ4FfKnu-12" style="edgeStyle=orthogonalEdgeStyle;rounded=0;orthogonalLoop=1;jettySize=auto;html=1;entryX=0.5;entryY=0;entryDx=0;entryDy=0;" edge="1" parent="1" source="RgUEGCzLxgp7YQ4FfKnu-13" target="RgUEGCzLxgp7YQ4FfKnu-15">
          <mxGeometry relative="1" as="geometry" />
        </mxCell>
        <mxCell id="RgUEGCzLxgp7YQ4FfKnu-13" value="OUTPUT &quot;Enter number rows and columns :&amp;nbsp; &quot;" style="shape=parallelogram;perimeter=parallelogramPerimeter;whiteSpace=wrap;html=1;fixedSize=1;" vertex="1" parent="1">
          <mxGeometry x="721.25" y="680" width="218.75" height="60" as="geometry" />
        </mxCell>
        <mxCell id="RgUEGCzLxgp7YQ4FfKnu-14" style="edgeStyle=orthogonalEdgeStyle;rounded=0;orthogonalLoop=1;jettySize=auto;html=1;entryX=0.5;entryY=0;entryDx=0;entryDy=0;" edge="1" parent="1" source="RgUEGCzLxgp7YQ4FfKnu-15" target="RgUEGCzLxgp7YQ4FfKnu-17">
          <mxGeometry relative="1" as="geometry" />
        </mxCell>
        <mxCell id="RgUEGCzLxgp7YQ4FfKnu-15" value="INPUT rows1, cols1&amp;nbsp;" style="shape=parallelogram;perimeter=parallelogramPerimeter;whiteSpace=wrap;html=1;fixedSize=1;" vertex="1" parent="1">
          <mxGeometry x="720.63" y="780" width="218.75" height="60" as="geometry" />
        </mxCell>
        <mxCell id="RgUEGCzLxgp7YQ4FfKnu-16" style="edgeStyle=orthogonalEdgeStyle;rounded=0;orthogonalLoop=1;jettySize=auto;html=1;entryX=0.5;entryY=0;entryDx=0;entryDy=0;" edge="1" parent="1" source="RgUEGCzLxgp7YQ4FfKnu-17" target="RgUEGCzLxgp7YQ4FfKnu-20">
          <mxGeometry relative="1" as="geometry" />
        </mxCell>
        <mxCell id="RgUEGCzLxgp7YQ4FfKnu-17" value="i = 0" style="rounded=0;whiteSpace=wrap;html=1;" vertex="1" parent="1">
          <mxGeometry x="770" y="880" width="120" height="60" as="geometry" />
        </mxCell>
        <mxCell id="RgUEGCzLxgp7YQ4FfKnu-18" style="edgeStyle=orthogonalEdgeStyle;rounded=0;orthogonalLoop=1;jettySize=auto;html=1;entryX=0.5;entryY=0;entryDx=0;entryDy=0;" edge="1" parent="1" source="RgUEGCzLxgp7YQ4FfKnu-20" target="RgUEGCzLxgp7YQ4FfKnu-25">
          <mxGeometry relative="1" as="geometry" />
        </mxCell>
        <mxCell id="RgUEGCzLxgp7YQ4FfKnu-19" style="edgeStyle=orthogonalEdgeStyle;rounded=0;orthogonalLoop=1;jettySize=auto;html=1;entryX=0.5;entryY=0;entryDx=0;entryDy=0;" edge="1" parent="1" source="RgUEGCzLxgp7YQ4FfKnu-20" target="RgUEGCzLxgp7YQ4FfKnu-35">
          <mxGeometry relative="1" as="geometry">
            <mxPoint x="469.9999999999998" y="1370.8421566611842" as="targetPoint" />
          </mxGeometry>
        </mxCell>
        <mxCell id="RgUEGCzLxgp7YQ4FfKnu-20" value="i &amp;lt; rows1" style="rhombus;whiteSpace=wrap;html=1;" vertex="1" parent="1">
          <mxGeometry x="791" y="990" width="80" height="80" as="geometry" />
        </mxCell>
        <mxCell id="RgUEGCzLxgp7YQ4FfKnu-21" style="edgeStyle=orthogonalEdgeStyle;rounded=0;orthogonalLoop=1;jettySize=auto;html=1;entryX=0.5;entryY=0;entryDx=0;entryDy=0;" edge="1" parent="1" source="RgUEGCzLxgp7YQ4FfKnu-23" target="RgUEGCzLxgp7YQ4FfKnu-27">
          <mxGeometry relative="1" as="geometry" />
        </mxCell>
        <mxCell id="RgUEGCzLxgp7YQ4FfKnu-22" style="edgeStyle=orthogonalEdgeStyle;rounded=0;orthogonalLoop=1;jettySize=auto;html=1;entryX=0.5;entryY=0;entryDx=0;entryDy=0;exitX=0;exitY=0.5;exitDx=0;exitDy=0;" edge="1" parent="1" source="RgUEGCzLxgp7YQ4FfKnu-23" target="RgUEGCzLxgp7YQ4FfKnu-33">
          <mxGeometry relative="1" as="geometry">
            <mxPoint x="830" y="1470" as="targetPoint" />
          </mxGeometry>
        </mxCell>
        <mxCell id="RgUEGCzLxgp7YQ4FfKnu-23" value="j &amp;lt; cols1" style="rhombus;whiteSpace=wrap;html=1;" vertex="1" parent="1">
          <mxGeometry x="990" y="1210" width="80" height="80" as="geometry" />
        </mxCell>
        <mxCell id="RgUEGCzLxgp7YQ4FfKnu-24" style="edgeStyle=orthogonalEdgeStyle;rounded=0;orthogonalLoop=1;jettySize=auto;html=1;entryX=0.5;entryY=0;entryDx=0;entryDy=0;" edge="1" parent="1" source="RgUEGCzLxgp7YQ4FfKnu-25" target="RgUEGCzLxgp7YQ4FfKnu-23">
          <mxGeometry relative="1" as="geometry" />
        </mxCell>
        <mxCell id="RgUEGCzLxgp7YQ4FfKnu-25" value="j = 0" style="rounded=0;whiteSpace=wrap;html=1;" vertex="1" parent="1">
          <mxGeometry x="970" y="1090" width="120" height="60" as="geometry" />
        </mxCell>
        <mxCell id="RgUEGCzLxgp7YQ4FfKnu-26" style="edgeStyle=orthogonalEdgeStyle;rounded=0;orthogonalLoop=1;jettySize=auto;html=1;entryX=0.5;entryY=0;entryDx=0;entryDy=0;" edge="1" parent="1" source="RgUEGCzLxgp7YQ4FfKnu-27" target="RgUEGCzLxgp7YQ4FfKnu-29">
          <mxGeometry relative="1" as="geometry" />
        </mxCell>
        <mxCell id="RgUEGCzLxgp7YQ4FfKnu-27" value="OUTPUT &quot;Enter&quot; i + j &quot;value : &quot;" style="shape=parallelogram;perimeter=parallelogramPerimeter;whiteSpace=wrap;html=1;fixedSize=1;" vertex="1" parent="1">
          <mxGeometry x="1070.62" y="1330" width="218.75" height="60" as="geometry" />
        </mxCell>
        <mxCell id="RgUEGCzLxgp7YQ4FfKnu-28" style="edgeStyle=orthogonalEdgeStyle;rounded=0;orthogonalLoop=1;jettySize=auto;html=1;entryX=0.5;entryY=0;entryDx=0;entryDy=0;" edge="1" parent="1" source="RgUEGCzLxgp7YQ4FfKnu-29" target="RgUEGCzLxgp7YQ4FfKnu-31">
          <mxGeometry relative="1" as="geometry" />
        </mxCell>
        <mxCell id="RgUEGCzLxgp7YQ4FfKnu-29" value="INPUT Matrix1[ i ][ j ]" style="shape=parallelogram;perimeter=parallelogramPerimeter;whiteSpace=wrap;html=1;fixedSize=1;" vertex="1" parent="1">
          <mxGeometry x="1070" y="1430" width="218.75" height="60" as="geometry" />
        </mxCell>
        <mxCell id="RgUEGCzLxgp7YQ4FfKnu-30" style="edgeStyle=orthogonalEdgeStyle;rounded=0;orthogonalLoop=1;jettySize=auto;html=1;exitX=0.5;exitY=1;exitDx=0;exitDy=0;" edge="1" parent="1" source="RgUEGCzLxgp7YQ4FfKnu-40">
          <mxGeometry relative="1" as="geometry">
            <mxPoint x="1030" y="1180" as="targetPoint" />
            <Array as="points">
              <mxPoint x="1180" y="1620" />
              <mxPoint x="1340" y="1620" />
              <mxPoint x="1340" y="1180" />
            </Array>
          </mxGeometry>
        </mxCell>
        <mxCell id="RgUEGCzLxgp7YQ4FfKnu-31" value="j += 1" style="rounded=0;whiteSpace=wrap;html=1;" vertex="1" parent="1">
          <mxGeometry x="1120" y="1530" width="120" height="60" as="geometry" />
        </mxCell>
        <mxCell id="RgUEGCzLxgp7YQ4FfKnu-32" style="edgeStyle=orthogonalEdgeStyle;rounded=0;orthogonalLoop=1;jettySize=auto;html=1;exitX=0.5;exitY=1;exitDx=0;exitDy=0;" edge="1" parent="1" source="RgUEGCzLxgp7YQ4FfKnu-33">
          <mxGeometry relative="1" as="geometry">
            <mxPoint x="830" y="960.0000000000002" as="targetPoint" />
            <Array as="points">
              <mxPoint x="900" y="1680" />
              <mxPoint x="1400" y="1680" />
              <mxPoint x="1400" y="960" />
            </Array>
          </mxGeometry>
        </mxCell>
        <mxCell id="RgUEGCzLxgp7YQ4FfKnu-33" value="i += 1" style="rounded=0;whiteSpace=wrap;html=1;" vertex="1" parent="1">
          <mxGeometry x="840" y="1330" width="120" height="60" as="geometry" />
        </mxCell>
        <mxCell id="RgUEGCzLxgp7YQ4FfKnu-34" style="edgeStyle=orthogonalEdgeStyle;rounded=0;orthogonalLoop=1;jettySize=auto;html=1;entryX=0.5;entryY=0;entryDx=0;entryDy=0;" edge="1" parent="1" source="RgUEGCzLxgp7YQ4FfKnu-35" target="RgUEGCzLxgp7YQ4FfKnu-37">
          <mxGeometry relative="1" as="geometry" />
        </mxCell>
        <mxCell id="RgUEGCzLxgp7YQ4FfKnu-35" value="OUTPUT &quot;Enter Matrix2 : &quot;" style="shape=parallelogram;perimeter=parallelogramPerimeter;whiteSpace=wrap;html=1;fixedSize=1;" vertex="1" parent="1">
          <mxGeometry x="150" y="1100" width="224.06" height="60" as="geometry" />
        </mxCell>
        <mxCell id="RgUEGCzLxgp7YQ4FfKnu-36" style="edgeStyle=orthogonalEdgeStyle;rounded=0;orthogonalLoop=1;jettySize=auto;html=1;entryX=0.5;entryY=0;entryDx=0;entryDy=0;" edge="1" parent="1" source="RgUEGCzLxgp7YQ4FfKnu-37" target="RgUEGCzLxgp7YQ4FfKnu-39">
          <mxGeometry relative="1" as="geometry" />
        </mxCell>
        <mxCell id="RgUEGCzLxgp7YQ4FfKnu-37" value="OUTPUT &quot;Enter number rows and columns :&amp;nbsp; &quot;" style="shape=parallelogram;perimeter=parallelogramPerimeter;whiteSpace=wrap;html=1;fixedSize=1;" vertex="1" parent="1">
          <mxGeometry x="152.64999999999998" y="1190" width="218.75" height="60" as="geometry" />
        </mxCell>
        <mxCell id="RgUEGCzLxgp7YQ4FfKnu-38" style="edgeStyle=orthogonalEdgeStyle;rounded=0;orthogonalLoop=1;jettySize=auto;html=1;entryX=0.5;entryY=0;entryDx=0;entryDy=0;" edge="1" parent="1" source="RgUEGCzLxgp7YQ4FfKnu-39" target="RgUEGCzLxgp7YQ4FfKnu-55">
          <mxGeometry relative="1" as="geometry" />
        </mxCell>
        <mxCell id="RgUEGCzLxgp7YQ4FfKnu-39" value="INPUT rows2, cols2" style="shape=parallelogram;perimeter=parallelogramPerimeter;whiteSpace=wrap;html=1;fixedSize=1;" vertex="1" parent="1">
          <mxGeometry x="152.02999999999997" y="1290" width="218.75" height="60" as="geometry" />
        </mxCell>
        <mxCell id="RgUEGCzLxgp7YQ4FfKnu-40" value="j += 1" style="rounded=0;whiteSpace=wrap;html=1;" vertex="1" parent="1">
          <mxGeometry x="1120" y="1530" width="120" height="60" as="geometry" />
        </mxCell>
        <mxCell id="RgUEGCzLxgp7YQ4FfKnu-41" style="edgeStyle=orthogonalEdgeStyle;rounded=0;orthogonalLoop=1;jettySize=auto;html=1;entryX=0.5;entryY=0;entryDx=0;entryDy=0;exitX=1;exitY=0.5;exitDx=0;exitDy=0;" edge="1" parent="1" source="RgUEGCzLxgp7YQ4FfKnu-43" target="RgUEGCzLxgp7YQ4FfKnu-47">
          <mxGeometry relative="1" as="geometry" />
        </mxCell>
        <mxCell id="RgUEGCzLxgp7YQ4FfKnu-42" style="edgeStyle=orthogonalEdgeStyle;rounded=0;orthogonalLoop=1;jettySize=auto;html=1;" edge="1" parent="1" source="RgUEGCzLxgp7YQ4FfKnu-43" target="RgUEGCzLxgp7YQ4FfKnu-51">
          <mxGeometry relative="1" as="geometry" />
        </mxCell>
        <mxCell id="RgUEGCzLxgp7YQ4FfKnu-43" value="j &amp;lt; cols2" style="rhombus;whiteSpace=wrap;html=1;" vertex="1" parent="1">
          <mxGeometry x="391.4" y="1700" width="80" height="80" as="geometry" />
        </mxCell>
        <mxCell id="RgUEGCzLxgp7YQ4FfKnu-44" style="edgeStyle=orthogonalEdgeStyle;rounded=0;orthogonalLoop=1;jettySize=auto;html=1;entryX=0.5;entryY=0;entryDx=0;entryDy=0;" edge="1" parent="1" source="RgUEGCzLxgp7YQ4FfKnu-45" target="RgUEGCzLxgp7YQ4FfKnu-43">
          <mxGeometry relative="1" as="geometry" />
        </mxCell>
        <mxCell id="RgUEGCzLxgp7YQ4FfKnu-45" value="j = 0" style="rounded=0;whiteSpace=wrap;html=1;" vertex="1" parent="1">
          <mxGeometry x="371.4" y="1590" width="120" height="60" as="geometry" />
        </mxCell>
        <mxCell id="RgUEGCzLxgp7YQ4FfKnu-46" style="edgeStyle=orthogonalEdgeStyle;rounded=0;orthogonalLoop=1;jettySize=auto;html=1;entryX=0.5;entryY=0;entryDx=0;entryDy=0;" edge="1" parent="1" source="RgUEGCzLxgp7YQ4FfKnu-47" target="RgUEGCzLxgp7YQ4FfKnu-49">
          <mxGeometry relative="1" as="geometry" />
        </mxCell>
        <mxCell id="RgUEGCzLxgp7YQ4FfKnu-47" value="OUTPUT &quot;Enter&quot; i + j &quot;value : &quot;" style="shape=parallelogram;perimeter=parallelogramPerimeter;whiteSpace=wrap;html=1;fixedSize=1;" vertex="1" parent="1">
          <mxGeometry x="471.4" y="1800" width="218.75" height="60" as="geometry" />
        </mxCell>
        <mxCell id="RgUEGCzLxgp7YQ4FfKnu-48" style="edgeStyle=orthogonalEdgeStyle;rounded=0;orthogonalLoop=1;jettySize=auto;html=1;entryX=0.5;entryY=0;entryDx=0;entryDy=0;" edge="1" parent="1" source="RgUEGCzLxgp7YQ4FfKnu-49" target="RgUEGCzLxgp7YQ4FfKnu-53">
          <mxGeometry relative="1" as="geometry" />
        </mxCell>
        <mxCell id="RgUEGCzLxgp7YQ4FfKnu-49" value="INPUT Matrix2[ i ][ j ]" style="shape=parallelogram;perimeter=parallelogramPerimeter;whiteSpace=wrap;html=1;fixedSize=1;" vertex="1" parent="1">
          <mxGeometry x="471.4" y="1900" width="218.75" height="60" as="geometry" />
        </mxCell>
        <mxCell id="RgUEGCzLxgp7YQ4FfKnu-50" style="edgeStyle=orthogonalEdgeStyle;rounded=0;orthogonalLoop=1;jettySize=auto;html=1;" edge="1" parent="1" source="RgUEGCzLxgp7YQ4FfKnu-51">
          <mxGeometry relative="1" as="geometry">
            <mxPoint x="260" y="1470" as="targetPoint" />
            <Array as="points">
              <mxPoint x="311" y="2140" />
              <mxPoint x="780" y="2140" />
              <mxPoint x="780" y="1470" />
            </Array>
          </mxGeometry>
        </mxCell>
        <mxCell id="RgUEGCzLxgp7YQ4FfKnu-51" value="i += 1" style="rounded=0;whiteSpace=wrap;html=1;" vertex="1" parent="1">
          <mxGeometry x="250.78000000000003" y="1800" width="120" height="60" as="geometry" />
        </mxCell>
        <mxCell id="RgUEGCzLxgp7YQ4FfKnu-52" style="edgeStyle=orthogonalEdgeStyle;rounded=0;orthogonalLoop=1;jettySize=auto;html=1;" edge="1" parent="1" source="RgUEGCzLxgp7YQ4FfKnu-53">
          <mxGeometry relative="1" as="geometry">
            <mxPoint x="430.0000000000002" y="1670" as="targetPoint" />
            <Array as="points">
              <mxPoint x="581" y="2090" />
              <mxPoint x="730" y="2090" />
              <mxPoint x="730" y="1670" />
            </Array>
          </mxGeometry>
        </mxCell>
        <mxCell id="RgUEGCzLxgp7YQ4FfKnu-53" value="j += 1" style="rounded=0;whiteSpace=wrap;html=1;" vertex="1" parent="1">
          <mxGeometry x="520.78" y="2000" width="120" height="60" as="geometry" />
        </mxCell>
        <mxCell id="RgUEGCzLxgp7YQ4FfKnu-54" style="edgeStyle=orthogonalEdgeStyle;rounded=0;orthogonalLoop=1;jettySize=auto;html=1;" edge="1" parent="1" source="RgUEGCzLxgp7YQ4FfKnu-55" target="RgUEGCzLxgp7YQ4FfKnu-58">
          <mxGeometry relative="1" as="geometry" />
        </mxCell>
        <mxCell id="RgUEGCzLxgp7YQ4FfKnu-55" value="i = 0" style="rounded=0;whiteSpace=wrap;html=1;" vertex="1" parent="1">
          <mxGeometry x="202.02999999999997" y="1390" width="120" height="60" as="geometry" />
        </mxCell>
        <mxCell id="RgUEGCzLxgp7YQ4FfKnu-56" style="edgeStyle=orthogonalEdgeStyle;rounded=0;orthogonalLoop=1;jettySize=auto;html=1;entryX=0.5;entryY=0;entryDx=0;entryDy=0;" edge="1" parent="1" source="RgUEGCzLxgp7YQ4FfKnu-58" target="RgUEGCzLxgp7YQ4FfKnu-45">
          <mxGeometry relative="1" as="geometry" />
        </mxCell>
        <mxCell id="RgUEGCzLxgp7YQ4FfKnu-57" style="edgeStyle=orthogonalEdgeStyle;rounded=0;orthogonalLoop=1;jettySize=auto;html=1;entryX=0.5;entryY=0;entryDx=0;entryDy=0;" edge="1" parent="1" source="RgUEGCzLxgp7YQ4FfKnu-58" target="RgUEGCzLxgp7YQ4FfKnu-60">
          <mxGeometry relative="1" as="geometry">
            <mxPoint x="-200" y="1610" as="targetPoint" />
          </mxGeometry>
        </mxCell>
        <mxCell id="RgUEGCzLxgp7YQ4FfKnu-58" value="i &amp;lt; rows2" style="rhombus;whiteSpace=wrap;html=1;" vertex="1" parent="1">
          <mxGeometry x="221.41000000000003" y="1490" width="80" height="80" as="geometry" />
        </mxCell>
        <mxCell id="RgUEGCzLxgp7YQ4FfKnu-59" style="edgeStyle=orthogonalEdgeStyle;rounded=0;orthogonalLoop=1;jettySize=auto;html=1;entryX=0.5;entryY=0;entryDx=0;entryDy=0;" edge="1" parent="1" source="RgUEGCzLxgp7YQ4FfKnu-60" target="RgUEGCzLxgp7YQ4FfKnu-71">
          <mxGeometry relative="1" as="geometry" />
        </mxCell>
        <mxCell id="RgUEGCzLxgp7YQ4FfKnu-60" value="OUTPUT &quot;Matrix1 : &quot;" style="shape=parallelogram;perimeter=parallelogramPerimeter;whiteSpace=wrap;html=1;fixedSize=1;" vertex="1" parent="1">
          <mxGeometry x="-410" y="1590" width="218.75" height="60" as="geometry" />
        </mxCell>
        <mxCell id="RgUEGCzLxgp7YQ4FfKnu-61" value="i = 0" style="rounded=0;whiteSpace=wrap;html=1;" vertex="1" parent="1">
          <mxGeometry x="771" y="880" width="120" height="60" as="geometry" />
        </mxCell>
        <mxCell id="RgUEGCzLxgp7YQ4FfKnu-62" style="edgeStyle=orthogonalEdgeStyle;rounded=0;orthogonalLoop=1;jettySize=auto;html=1;entryX=0.5;entryY=0;entryDx=0;entryDy=0;" edge="1" parent="1" source="RgUEGCzLxgp7YQ4FfKnu-64" target="RgUEGCzLxgp7YQ4FfKnu-69">
          <mxGeometry relative="1" as="geometry" />
        </mxCell>
        <mxCell id="RgUEGCzLxgp7YQ4FfKnu-63" style="edgeStyle=orthogonalEdgeStyle;rounded=0;orthogonalLoop=1;jettySize=auto;html=1;entryX=0.5;entryY=0;entryDx=0;entryDy=0;" edge="1" parent="1" source="RgUEGCzLxgp7YQ4FfKnu-64" target="RgUEGCzLxgp7YQ4FfKnu-79">
          <mxGeometry relative="1" as="geometry">
            <mxPoint x="-1450" y="2020" as="targetPoint" />
          </mxGeometry>
        </mxCell>
        <mxCell id="RgUEGCzLxgp7YQ4FfKnu-64" value="i &amp;lt; rows1" style="rhombus;whiteSpace=wrap;html=1;" vertex="1" parent="1">
          <mxGeometry x="-340" y="1805" width="80" height="80" as="geometry" />
        </mxCell>
        <mxCell id="RgUEGCzLxgp7YQ4FfKnu-65" style="edgeStyle=orthogonalEdgeStyle;rounded=0;orthogonalLoop=1;jettySize=auto;html=1;exitX=1;exitY=0.5;exitDx=0;exitDy=0;" edge="1" parent="1" source="RgUEGCzLxgp7YQ4FfKnu-67" target="RgUEGCzLxgp7YQ4FfKnu-73">
          <mxGeometry relative="1" as="geometry" />
        </mxCell>
        <mxCell id="RgUEGCzLxgp7YQ4FfKnu-66" style="edgeStyle=orthogonalEdgeStyle;rounded=0;orthogonalLoop=1;jettySize=auto;html=1;" edge="1" parent="1" source="RgUEGCzLxgp7YQ4FfKnu-67" target="RgUEGCzLxgp7YQ4FfKnu-77">
          <mxGeometry relative="1" as="geometry" />
        </mxCell>
        <mxCell id="RgUEGCzLxgp7YQ4FfKnu-67" value="j &amp;lt; cols1" style="rhombus;whiteSpace=wrap;html=1;" vertex="1" parent="1">
          <mxGeometry x="-200" y="2030" width="80" height="80" as="geometry" />
        </mxCell>
        <mxCell id="RgUEGCzLxgp7YQ4FfKnu-68" style="edgeStyle=orthogonalEdgeStyle;rounded=0;orthogonalLoop=1;jettySize=auto;html=1;entryX=0.5;entryY=0;entryDx=0;entryDy=0;" edge="1" parent="1" source="RgUEGCzLxgp7YQ4FfKnu-69" target="RgUEGCzLxgp7YQ4FfKnu-67">
          <mxGeometry relative="1" as="geometry" />
        </mxCell>
        <mxCell id="RgUEGCzLxgp7YQ4FfKnu-69" value="j = 0" style="rounded=0;whiteSpace=wrap;html=1;" vertex="1" parent="1">
          <mxGeometry x="-220" y="1910" width="120" height="60" as="geometry" />
        </mxCell>
        <mxCell id="RgUEGCzLxgp7YQ4FfKnu-70" style="edgeStyle=orthogonalEdgeStyle;rounded=0;orthogonalLoop=1;jettySize=auto;html=1;" edge="1" parent="1" source="RgUEGCzLxgp7YQ4FfKnu-71" target="RgUEGCzLxgp7YQ4FfKnu-64">
          <mxGeometry relative="1" as="geometry" />
        </mxCell>
        <mxCell id="RgUEGCzLxgp7YQ4FfKnu-71" value="i = 0" style="rounded=0;whiteSpace=wrap;html=1;" vertex="1" parent="1">
          <mxGeometry x="-360" y="1695" width="120" height="60" as="geometry" />
        </mxCell>
        <mxCell id="RgUEGCzLxgp7YQ4FfKnu-72" style="edgeStyle=orthogonalEdgeStyle;rounded=0;orthogonalLoop=1;jettySize=auto;html=1;entryX=0.5;entryY=0;entryDx=0;entryDy=0;" edge="1" parent="1" source="RgUEGCzLxgp7YQ4FfKnu-73" target="RgUEGCzLxgp7YQ4FfKnu-75">
          <mxGeometry relative="1" as="geometry" />
        </mxCell>
        <mxCell id="RgUEGCzLxgp7YQ4FfKnu-73" value="OUTPUT Matrix1[ i ] [ j ]" style="shape=parallelogram;perimeter=parallelogramPerimeter;whiteSpace=wrap;html=1;fixedSize=1;" vertex="1" parent="1">
          <mxGeometry x="-120" y="2150" width="190" height="60" as="geometry" />
        </mxCell>
        <mxCell id="RgUEGCzLxgp7YQ4FfKnu-74" style="edgeStyle=orthogonalEdgeStyle;rounded=0;orthogonalLoop=1;jettySize=auto;html=1;" edge="1" parent="1" source="RgUEGCzLxgp7YQ4FfKnu-75">
          <mxGeometry relative="1" as="geometry">
            <mxPoint x="-160" y="2000" as="targetPoint" />
            <Array as="points">
              <mxPoint x="-25" y="2360" />
              <mxPoint x="100" y="2360" />
              <mxPoint x="100" y="2000" />
            </Array>
          </mxGeometry>
        </mxCell>
        <mxCell id="RgUEGCzLxgp7YQ4FfKnu-75" value="j += 1" style="rounded=0;whiteSpace=wrap;html=1;" vertex="1" parent="1">
          <mxGeometry x="-85" y="2260" width="120" height="60" as="geometry" />
        </mxCell>
        <mxCell id="RgUEGCzLxgp7YQ4FfKnu-76" style="edgeStyle=orthogonalEdgeStyle;rounded=0;orthogonalLoop=1;jettySize=auto;html=1;" edge="1" parent="1" source="RgUEGCzLxgp7YQ4FfKnu-77">
          <mxGeometry relative="1" as="geometry">
            <mxPoint x="-300" y="1770" as="targetPoint" />
            <Array as="points">
              <mxPoint x="-280" y="2410" />
              <mxPoint x="150" y="2410" />
              <mxPoint x="150" y="1770" />
            </Array>
          </mxGeometry>
        </mxCell>
        <mxCell id="RgUEGCzLxgp7YQ4FfKnu-77" value="i += 1" style="rounded=0;whiteSpace=wrap;html=1;" vertex="1" parent="1">
          <mxGeometry x="-339.99999999999994" y="2150" width="120" height="60" as="geometry" />
        </mxCell>
        <mxCell id="RgUEGCzLxgp7YQ4FfKnu-78" style="edgeStyle=orthogonalEdgeStyle;rounded=0;orthogonalLoop=1;jettySize=auto;html=1;entryX=0.5;entryY=0;entryDx=0;entryDy=0;" edge="1" parent="1" source="RgUEGCzLxgp7YQ4FfKnu-79" target="RgUEGCzLxgp7YQ4FfKnu-89">
          <mxGeometry relative="1" as="geometry" />
        </mxCell>
        <mxCell id="RgUEGCzLxgp7YQ4FfKnu-79" value="OUTPUT &quot;Matrix2 : &quot;" style="shape=parallelogram;perimeter=parallelogramPerimeter;whiteSpace=wrap;html=1;fixedSize=1;" vertex="1" parent="1">
          <mxGeometry x="-970" y="1910" width="218.75" height="60" as="geometry" />
        </mxCell>
        <mxCell id="RgUEGCzLxgp7YQ4FfKnu-80" style="edgeStyle=orthogonalEdgeStyle;rounded=0;orthogonalLoop=1;jettySize=auto;html=1;entryX=0.5;entryY=0;entryDx=0;entryDy=0;" edge="1" parent="1" source="RgUEGCzLxgp7YQ4FfKnu-82" target="RgUEGCzLxgp7YQ4FfKnu-87">
          <mxGeometry relative="1" as="geometry" />
        </mxCell>
        <mxCell id="RgUEGCzLxgp7YQ4FfKnu-81" style="edgeStyle=orthogonalEdgeStyle;rounded=0;orthogonalLoop=1;jettySize=auto;html=1;exitX=0;exitY=0.5;exitDx=0;exitDy=0;" edge="1" parent="1" source="RgUEGCzLxgp7YQ4FfKnu-82" target="RgUEGCzLxgp7YQ4FfKnu-97">
          <mxGeometry relative="1" as="geometry">
            <mxPoint x="-990" y="2165" as="sourcePoint" />
          </mxGeometry>
        </mxCell>
        <mxCell id="RgUEGCzLxgp7YQ4FfKnu-82" value="i &amp;lt; rows2" style="rhombus;whiteSpace=wrap;html=1;" vertex="1" parent="1">
          <mxGeometry x="-900" y="2125" width="80" height="80" as="geometry" />
        </mxCell>
        <mxCell id="RgUEGCzLxgp7YQ4FfKnu-83" style="edgeStyle=orthogonalEdgeStyle;rounded=0;orthogonalLoop=1;jettySize=auto;html=1;exitX=1;exitY=0.5;exitDx=0;exitDy=0;" edge="1" parent="1" source="RgUEGCzLxgp7YQ4FfKnu-85" target="RgUEGCzLxgp7YQ4FfKnu-91">
          <mxGeometry relative="1" as="geometry" />
        </mxCell>
        <mxCell id="RgUEGCzLxgp7YQ4FfKnu-84" style="edgeStyle=orthogonalEdgeStyle;rounded=0;orthogonalLoop=1;jettySize=auto;html=1;" edge="1" parent="1" source="RgUEGCzLxgp7YQ4FfKnu-85" target="RgUEGCzLxgp7YQ4FfKnu-95">
          <mxGeometry relative="1" as="geometry" />
        </mxCell>
        <mxCell id="RgUEGCzLxgp7YQ4FfKnu-85" value="j &amp;lt; cols2" style="rhombus;whiteSpace=wrap;html=1;" vertex="1" parent="1">
          <mxGeometry x="-760" y="2350" width="80" height="80" as="geometry" />
        </mxCell>
        <mxCell id="RgUEGCzLxgp7YQ4FfKnu-86" style="edgeStyle=orthogonalEdgeStyle;rounded=0;orthogonalLoop=1;jettySize=auto;html=1;entryX=0.5;entryY=0;entryDx=0;entryDy=0;" edge="1" parent="1" source="RgUEGCzLxgp7YQ4FfKnu-87" target="RgUEGCzLxgp7YQ4FfKnu-85">
          <mxGeometry relative="1" as="geometry" />
        </mxCell>
        <mxCell id="RgUEGCzLxgp7YQ4FfKnu-87" value="j = 0" style="rounded=0;whiteSpace=wrap;html=1;" vertex="1" parent="1">
          <mxGeometry x="-780" y="2230" width="120" height="60" as="geometry" />
        </mxCell>
        <mxCell id="RgUEGCzLxgp7YQ4FfKnu-88" style="edgeStyle=orthogonalEdgeStyle;rounded=0;orthogonalLoop=1;jettySize=auto;html=1;" edge="1" parent="1" source="RgUEGCzLxgp7YQ4FfKnu-89" target="RgUEGCzLxgp7YQ4FfKnu-82">
          <mxGeometry relative="1" as="geometry" />
        </mxCell>
        <mxCell id="RgUEGCzLxgp7YQ4FfKnu-89" value="i = 0" style="rounded=0;whiteSpace=wrap;html=1;" vertex="1" parent="1">
          <mxGeometry x="-920" y="2015" width="120" height="60" as="geometry" />
        </mxCell>
        <mxCell id="RgUEGCzLxgp7YQ4FfKnu-90" style="edgeStyle=orthogonalEdgeStyle;rounded=0;orthogonalLoop=1;jettySize=auto;html=1;entryX=0.5;entryY=0;entryDx=0;entryDy=0;" edge="1" parent="1" source="RgUEGCzLxgp7YQ4FfKnu-91" target="RgUEGCzLxgp7YQ4FfKnu-93">
          <mxGeometry relative="1" as="geometry" />
        </mxCell>
        <mxCell id="RgUEGCzLxgp7YQ4FfKnu-91" value="OUTPUT Matrix2[ i ] [ j ]" style="shape=parallelogram;perimeter=parallelogramPerimeter;whiteSpace=wrap;html=1;fixedSize=1;" vertex="1" parent="1">
          <mxGeometry x="-680" y="2470" width="190" height="60" as="geometry" />
        </mxCell>
        <mxCell id="RgUEGCzLxgp7YQ4FfKnu-92" style="edgeStyle=orthogonalEdgeStyle;rounded=0;orthogonalLoop=1;jettySize=auto;html=1;" edge="1" parent="1" source="RgUEGCzLxgp7YQ4FfKnu-93">
          <mxGeometry relative="1" as="geometry">
            <mxPoint x="-720" y="2320" as="targetPoint" />
            <Array as="points">
              <mxPoint x="-585" y="2680" />
              <mxPoint x="-460" y="2680" />
              <mxPoint x="-460" y="2320" />
            </Array>
          </mxGeometry>
        </mxCell>
        <mxCell id="RgUEGCzLxgp7YQ4FfKnu-93" value="j += 1" style="rounded=0;whiteSpace=wrap;html=1;" vertex="1" parent="1">
          <mxGeometry x="-645" y="2580" width="120" height="60" as="geometry" />
        </mxCell>
        <mxCell id="RgUEGCzLxgp7YQ4FfKnu-94" style="edgeStyle=orthogonalEdgeStyle;rounded=0;orthogonalLoop=1;jettySize=auto;html=1;" edge="1" parent="1" source="RgUEGCzLxgp7YQ4FfKnu-95">
          <mxGeometry relative="1" as="geometry">
            <mxPoint x="-860" y="2090" as="targetPoint" />
            <Array as="points">
              <mxPoint x="-840" y="2730" />
              <mxPoint x="-410" y="2730" />
              <mxPoint x="-410" y="2090" />
            </Array>
          </mxGeometry>
        </mxCell>
        <mxCell id="RgUEGCzLxgp7YQ4FfKnu-95" value="i += 1" style="rounded=0;whiteSpace=wrap;html=1;" vertex="1" parent="1">
          <mxGeometry x="-900" y="2470" width="120" height="60" as="geometry" />
        </mxCell>
        <mxCell id="RgUEGCzLxgp7YQ4FfKnu-96" style="edgeStyle=orthogonalEdgeStyle;rounded=0;orthogonalLoop=1;jettySize=auto;html=1;entryX=0.5;entryY=0;entryDx=0;entryDy=0;" edge="1" parent="1" source="RgUEGCzLxgp7YQ4FfKnu-97" target="RgUEGCzLxgp7YQ4FfKnu-99">
          <mxGeometry relative="1" as="geometry" />
        </mxCell>
        <mxCell id="RgUEGCzLxgp7YQ4FfKnu-97" value="rows3 = cols1" style="rounded=0;whiteSpace=wrap;html=1;" vertex="1" parent="1">
          <mxGeometry x="-1420" y="2230" width="120" height="60" as="geometry" />
        </mxCell>
        <mxCell id="RgUEGCzLxgp7YQ4FfKnu-98" style="edgeStyle=orthogonalEdgeStyle;rounded=0;orthogonalLoop=1;jettySize=auto;html=1;entryX=0.5;entryY=0;entryDx=0;entryDy=0;" edge="1" parent="1" source="RgUEGCzLxgp7YQ4FfKnu-99" target="RgUEGCzLxgp7YQ4FfKnu-101">
          <mxGeometry relative="1" as="geometry" />
        </mxCell>
        <mxCell id="RgUEGCzLxgp7YQ4FfKnu-99" value="cols3 = rows1" style="rounded=0;whiteSpace=wrap;html=1;" vertex="1" parent="1">
          <mxGeometry x="-1420" y="2330" width="120" height="60" as="geometry" />
        </mxCell>
        <mxCell id="RgUEGCzLxgp7YQ4FfKnu-100" style="edgeStyle=orthogonalEdgeStyle;rounded=0;orthogonalLoop=1;jettySize=auto;html=1;" edge="1" parent="1" source="RgUEGCzLxgp7YQ4FfKnu-101" target="RgUEGCzLxgp7YQ4FfKnu-104">
          <mxGeometry relative="1" as="geometry" />
        </mxCell>
        <mxCell id="RgUEGCzLxgp7YQ4FfKnu-101" value="i = 0" style="rounded=0;whiteSpace=wrap;html=1;" vertex="1" parent="1">
          <mxGeometry x="-1420" y="2430" width="120" height="60" as="geometry" />
        </mxCell>
        <mxCell id="RgUEGCzLxgp7YQ4FfKnu-102" style="edgeStyle=orthogonalEdgeStyle;rounded=0;orthogonalLoop=1;jettySize=auto;html=1;entryX=0.5;entryY=0;entryDx=0;entryDy=0;" edge="1" parent="1" source="RgUEGCzLxgp7YQ4FfKnu-104" target="RgUEGCzLxgp7YQ4FfKnu-106">
          <mxGeometry relative="1" as="geometry" />
        </mxCell>
        <mxCell id="RgUEGCzLxgp7YQ4FfKnu-103" style="edgeStyle=orthogonalEdgeStyle;rounded=0;orthogonalLoop=1;jettySize=auto;html=1;entryX=0.5;entryY=0;entryDx=0;entryDy=0;" edge="1" parent="1" source="RgUEGCzLxgp7YQ4FfKnu-104" target="RgUEGCzLxgp7YQ4FfKnu-117">
          <mxGeometry relative="1" as="geometry">
            <mxPoint x="-1830" y="2860" as="targetPoint" />
          </mxGeometry>
        </mxCell>
        <mxCell id="RgUEGCzLxgp7YQ4FfKnu-104" value="i &amp;lt; rows3" style="rhombus;whiteSpace=wrap;html=1;" vertex="1" parent="1">
          <mxGeometry x="-1400" y="2540" width="80" height="80" as="geometry" />
        </mxCell>
        <mxCell id="RgUEGCzLxgp7YQ4FfKnu-105" style="edgeStyle=orthogonalEdgeStyle;rounded=0;orthogonalLoop=1;jettySize=auto;html=1;entryX=0.5;entryY=0;entryDx=0;entryDy=0;" edge="1" parent="1" source="RgUEGCzLxgp7YQ4FfKnu-106" target="RgUEGCzLxgp7YQ4FfKnu-109">
          <mxGeometry relative="1" as="geometry" />
        </mxCell>
        <mxCell id="RgUEGCzLxgp7YQ4FfKnu-106" value="j = 0" style="rounded=0;whiteSpace=wrap;html=1;" vertex="1" parent="1">
          <mxGeometry x="-1310" y="2630" width="120" height="60" as="geometry" />
        </mxCell>
        <mxCell id="RgUEGCzLxgp7YQ4FfKnu-107" style="edgeStyle=orthogonalEdgeStyle;rounded=0;orthogonalLoop=1;jettySize=auto;html=1;" edge="1" parent="1" source="RgUEGCzLxgp7YQ4FfKnu-109" target="RgUEGCzLxgp7YQ4FfKnu-111">
          <mxGeometry relative="1" as="geometry" />
        </mxCell>
        <mxCell id="RgUEGCzLxgp7YQ4FfKnu-108" style="edgeStyle=orthogonalEdgeStyle;rounded=0;orthogonalLoop=1;jettySize=auto;html=1;entryX=0.5;entryY=0;entryDx=0;entryDy=0;" edge="1" parent="1" source="RgUEGCzLxgp7YQ4FfKnu-109" target="RgUEGCzLxgp7YQ4FfKnu-115">
          <mxGeometry relative="1" as="geometry" />
        </mxCell>
        <mxCell id="RgUEGCzLxgp7YQ4FfKnu-109" value="j &amp;lt; cols3" style="rhombus;whiteSpace=wrap;html=1;" vertex="1" parent="1">
          <mxGeometry x="-1290" y="2750" width="80" height="80" as="geometry" />
        </mxCell>
        <mxCell id="RgUEGCzLxgp7YQ4FfKnu-110" style="edgeStyle=orthogonalEdgeStyle;rounded=0;orthogonalLoop=1;jettySize=auto;html=1;entryX=0.5;entryY=0;entryDx=0;entryDy=0;" edge="1" parent="1" source="RgUEGCzLxgp7YQ4FfKnu-111" target="RgUEGCzLxgp7YQ4FfKnu-113">
          <mxGeometry relative="1" as="geometry" />
        </mxCell>
        <mxCell id="RgUEGCzLxgp7YQ4FfKnu-111" value="Matrix3[ i ] [ j ] = Matrix1[ i ] [ j ]" style="rounded=0;whiteSpace=wrap;html=1;" vertex="1" parent="1">
          <mxGeometry x="-1200" y="2890" width="180" height="60" as="geometry" />
        </mxCell>
        <mxCell id="RgUEGCzLxgp7YQ4FfKnu-112" style="edgeStyle=orthogonalEdgeStyle;rounded=0;orthogonalLoop=1;jettySize=auto;html=1;" edge="1" parent="1" source="RgUEGCzLxgp7YQ4FfKnu-113">
          <mxGeometry relative="1" as="geometry">
            <mxPoint x="-1250" y="2720" as="targetPoint" />
            <Array as="points">
              <mxPoint x="-1110" y="3090" />
              <mxPoint x="-990" y="3090" />
              <mxPoint x="-990" y="2720" />
            </Array>
          </mxGeometry>
        </mxCell>
        <mxCell id="RgUEGCzLxgp7YQ4FfKnu-113" value="j += 1" style="rounded=0;whiteSpace=wrap;html=1;" vertex="1" parent="1">
          <mxGeometry x="-1170" y="2990" width="120" height="60" as="geometry" />
        </mxCell>
        <mxCell id="RgUEGCzLxgp7YQ4FfKnu-114" style="edgeStyle=orthogonalEdgeStyle;rounded=0;orthogonalLoop=1;jettySize=auto;html=1;" edge="1" parent="1" source="RgUEGCzLxgp7YQ4FfKnu-115">
          <mxGeometry relative="1" as="geometry">
            <mxPoint x="-1360" y="2510" as="targetPoint" />
            <Array as="points">
              <mxPoint x="-1360" y="3140" />
              <mxPoint x="-940" y="3140" />
              <mxPoint x="-940" y="2510" />
            </Array>
          </mxGeometry>
        </mxCell>
        <mxCell id="RgUEGCzLxgp7YQ4FfKnu-115" value="i += 1" style="rounded=0;whiteSpace=wrap;html=1;" vertex="1" parent="1">
          <mxGeometry x="-1420" y="2890" width="120" height="60" as="geometry" />
        </mxCell>
        <mxCell id="RgUEGCzLxgp7YQ4FfKnu-116" style="edgeStyle=orthogonalEdgeStyle;rounded=0;orthogonalLoop=1;jettySize=auto;html=1;entryX=0.5;entryY=0;entryDx=0;entryDy=0;" edge="1" parent="1" source="RgUEGCzLxgp7YQ4FfKnu-117" target="RgUEGCzLxgp7YQ4FfKnu-119">
          <mxGeometry relative="1" as="geometry" />
        </mxCell>
        <mxCell id="RgUEGCzLxgp7YQ4FfKnu-117" value="OUTPUT &quot;Transpose of Matrix1 is : &quot;" style="shape=parallelogram;perimeter=parallelogramPerimeter;whiteSpace=wrap;html=1;fixedSize=1;" vertex="1" parent="1">
          <mxGeometry x="-2030" y="2650" width="160" height="60" as="geometry" />
        </mxCell>
        <mxCell id="RgUEGCzLxgp7YQ4FfKnu-118" style="edgeStyle=orthogonalEdgeStyle;rounded=0;orthogonalLoop=1;jettySize=auto;html=1;entryX=0.5;entryY=0;entryDx=0;entryDy=0;" edge="1" parent="1" source="RgUEGCzLxgp7YQ4FfKnu-119" target="RgUEGCzLxgp7YQ4FfKnu-122">
          <mxGeometry relative="1" as="geometry" />
        </mxCell>
        <mxCell id="RgUEGCzLxgp7YQ4FfKnu-119" value="i = 0" style="rounded=0;whiteSpace=wrap;html=1;" vertex="1" parent="1">
          <mxGeometry x="-2010" y="2750" width="120" height="60" as="geometry" />
        </mxCell>
        <mxCell id="RgUEGCzLxgp7YQ4FfKnu-120" style="edgeStyle=orthogonalEdgeStyle;rounded=0;orthogonalLoop=1;jettySize=auto;html=1;entryX=0.5;entryY=0;entryDx=0;entryDy=0;" edge="1" parent="1" source="RgUEGCzLxgp7YQ4FfKnu-122" target="RgUEGCzLxgp7YQ4FfKnu-124">
          <mxGeometry relative="1" as="geometry" />
        </mxCell>
        <mxCell id="RgUEGCzLxgp7YQ4FfKnu-121" style="edgeStyle=orthogonalEdgeStyle;rounded=0;orthogonalLoop=1;jettySize=auto;html=1;entryX=0.5;entryY=0;entryDx=0;entryDy=0;" edge="1" parent="1" source="RgUEGCzLxgp7YQ4FfKnu-122" target="RgUEGCzLxgp7YQ4FfKnu-136">
          <mxGeometry relative="1" as="geometry">
            <mxPoint x="-2380" y="3040" as="targetPoint" />
          </mxGeometry>
        </mxCell>
        <mxCell id="RgUEGCzLxgp7YQ4FfKnu-122" value="i &amp;lt; rows3" style="rhombus;whiteSpace=wrap;html=1;" vertex="1" parent="1">
          <mxGeometry x="-1990" y="2860" width="80" height="80" as="geometry" />
        </mxCell>
        <mxCell id="RgUEGCzLxgp7YQ4FfKnu-123" style="edgeStyle=orthogonalEdgeStyle;rounded=0;orthogonalLoop=1;jettySize=auto;html=1;entryX=0.5;entryY=0;entryDx=0;entryDy=0;" edge="1" parent="1" source="RgUEGCzLxgp7YQ4FfKnu-124" target="RgUEGCzLxgp7YQ4FfKnu-127">
          <mxGeometry relative="1" as="geometry" />
        </mxCell>
        <mxCell id="RgUEGCzLxgp7YQ4FfKnu-124" value="j = 0" style="rounded=0;whiteSpace=wrap;html=1;" vertex="1" parent="1">
          <mxGeometry x="-1900" y="2950" width="120" height="60" as="geometry" />
        </mxCell>
        <mxCell id="RgUEGCzLxgp7YQ4FfKnu-125" style="edgeStyle=orthogonalEdgeStyle;rounded=0;orthogonalLoop=1;jettySize=auto;html=1;" edge="1" parent="1" source="RgUEGCzLxgp7YQ4FfKnu-127" target="RgUEGCzLxgp7YQ4FfKnu-133">
          <mxGeometry relative="1" as="geometry" />
        </mxCell>
        <mxCell id="RgUEGCzLxgp7YQ4FfKnu-126" style="edgeStyle=orthogonalEdgeStyle;rounded=0;orthogonalLoop=1;jettySize=auto;html=1;" edge="1" parent="1" source="RgUEGCzLxgp7YQ4FfKnu-127" target="RgUEGCzLxgp7YQ4FfKnu-129">
          <mxGeometry relative="1" as="geometry" />
        </mxCell>
        <mxCell id="RgUEGCzLxgp7YQ4FfKnu-127" value="j &amp;lt; cols3" style="rhombus;whiteSpace=wrap;html=1;" vertex="1" parent="1">
          <mxGeometry x="-1880" y="3070" width="80" height="80" as="geometry" />
        </mxCell>
        <mxCell id="RgUEGCzLxgp7YQ4FfKnu-128" style="edgeStyle=orthogonalEdgeStyle;rounded=0;orthogonalLoop=1;jettySize=auto;html=1;entryX=0.5;entryY=0;entryDx=0;entryDy=0;" edge="1" parent="1" source="RgUEGCzLxgp7YQ4FfKnu-129" target="RgUEGCzLxgp7YQ4FfKnu-131">
          <mxGeometry relative="1" as="geometry" />
        </mxCell>
        <mxCell id="RgUEGCzLxgp7YQ4FfKnu-129" value="OUTPUT Matrix3[ i ] [ j ]&amp;nbsp;" style="rounded=0;whiteSpace=wrap;html=1;" vertex="1" parent="1">
          <mxGeometry x="-1790" y="3210" width="180" height="60" as="geometry" />
        </mxCell>
        <mxCell id="RgUEGCzLxgp7YQ4FfKnu-130" style="edgeStyle=orthogonalEdgeStyle;rounded=0;orthogonalLoop=1;jettySize=auto;html=1;" edge="1" parent="1" source="RgUEGCzLxgp7YQ4FfKnu-131">
          <mxGeometry relative="1" as="geometry">
            <mxPoint x="-1840" y="3040" as="targetPoint" />
            <Array as="points">
              <mxPoint x="-1700" y="3410" />
              <mxPoint x="-1570" y="3410" />
              <mxPoint x="-1570" y="3040" />
            </Array>
          </mxGeometry>
        </mxCell>
        <mxCell id="RgUEGCzLxgp7YQ4FfKnu-131" value="j += 1" style="rounded=0;whiteSpace=wrap;html=1;" vertex="1" parent="1">
          <mxGeometry x="-1760" y="3310" width="120" height="60" as="geometry" />
        </mxCell>
        <mxCell id="RgUEGCzLxgp7YQ4FfKnu-132" style="edgeStyle=orthogonalEdgeStyle;rounded=0;orthogonalLoop=1;jettySize=auto;html=1;" edge="1" parent="1" source="RgUEGCzLxgp7YQ4FfKnu-133">
          <mxGeometry relative="1" as="geometry">
            <mxPoint x="-1950" y="2830" as="targetPoint" />
            <Array as="points">
              <mxPoint x="-1950" y="3460" />
              <mxPoint x="-1510" y="3460" />
              <mxPoint x="-1510" y="2830" />
            </Array>
          </mxGeometry>
        </mxCell>
        <mxCell id="RgUEGCzLxgp7YQ4FfKnu-133" value="i += 1" style="rounded=0;whiteSpace=wrap;html=1;" vertex="1" parent="1">
          <mxGeometry x="-2010" y="3210" width="120" height="60" as="geometry" />
        </mxCell>
        <mxCell id="RgUEGCzLxgp7YQ4FfKnu-134" style="edgeStyle=orthogonalEdgeStyle;rounded=0;orthogonalLoop=1;jettySize=auto;html=1;entryX=0.5;entryY=0;entryDx=0;entryDy=0;exitX=1;exitY=0.5;exitDx=0;exitDy=0;" edge="1" parent="1" source="RgUEGCzLxgp7YQ4FfKnu-136" target="RgUEGCzLxgp7YQ4FfKnu-138">
          <mxGeometry relative="1" as="geometry" />
        </mxCell>
        <mxCell id="RgUEGCzLxgp7YQ4FfKnu-135" style="edgeStyle=orthogonalEdgeStyle;rounded=0;orthogonalLoop=1;jettySize=auto;html=1;entryX=0.5;entryY=0;entryDx=0;entryDy=0;" edge="1" parent="1" source="RgUEGCzLxgp7YQ4FfKnu-136" target="RgUEGCzLxgp7YQ4FfKnu-140">
          <mxGeometry relative="1" as="geometry">
            <mxPoint x="-3010" y="3140" as="targetPoint" />
            <Array as="points">
              <mxPoint x="-3010" y="3015" />
            </Array>
          </mxGeometry>
        </mxCell>
        <mxCell id="RgUEGCzLxgp7YQ4FfKnu-136" value="cols1 != rows2" style="rhombus;whiteSpace=wrap;html=1;" vertex="1" parent="1">
          <mxGeometry x="-2420" y="2970" width="100" height="90" as="geometry" />
        </mxCell>
        <mxCell id="RgUEGCzLxgp7YQ4FfKnu-137" style="edgeStyle=orthogonalEdgeStyle;rounded=0;orthogonalLoop=1;jettySize=auto;html=1;entryX=1;entryY=0.5;entryDx=0;entryDy=0;exitX=0.5;exitY=1;exitDx=0;exitDy=0;" edge="1" parent="1" source="RgUEGCzLxgp7YQ4FfKnu-138" target="RgUEGCzLxgp7YQ4FfKnu-187">
          <mxGeometry relative="1" as="geometry">
            <Array as="points">
              <mxPoint x="-2160" y="3140" />
              <mxPoint x="-2160" y="4400" />
            </Array>
          </mxGeometry>
        </mxCell>
        <mxCell id="RgUEGCzLxgp7YQ4FfKnu-138" value="OUTPUT &quot;Matrix1 and Matrix2 cannot multiply&quot;" style="shape=parallelogram;perimeter=parallelogramPerimeter;whiteSpace=wrap;html=1;fixedSize=1;" vertex="1" parent="1">
          <mxGeometry x="-2260" y="3080" width="200" height="60" as="geometry" />
        </mxCell>
        <mxCell id="RgUEGCzLxgp7YQ4FfKnu-139" style="edgeStyle=orthogonalEdgeStyle;rounded=0;orthogonalLoop=1;jettySize=auto;html=1;entryX=0.5;entryY=0;entryDx=0;entryDy=0;" edge="1" parent="1" source="RgUEGCzLxgp7YQ4FfKnu-140" target="RgUEGCzLxgp7YQ4FfKnu-142">
          <mxGeometry relative="1" as="geometry" />
        </mxCell>
        <mxCell id="RgUEGCzLxgp7YQ4FfKnu-140" value="rows4 = rows1" style="rounded=0;whiteSpace=wrap;html=1;" vertex="1" parent="1">
          <mxGeometry x="-3070" y="3080" width="120" height="40" as="geometry" />
        </mxCell>
        <mxCell id="RgUEGCzLxgp7YQ4FfKnu-141" style="edgeStyle=orthogonalEdgeStyle;rounded=0;orthogonalLoop=1;jettySize=auto;html=1;entryX=0.5;entryY=0;entryDx=0;entryDy=0;" edge="1" parent="1" source="RgUEGCzLxgp7YQ4FfKnu-142" target="RgUEGCzLxgp7YQ4FfKnu-144">
          <mxGeometry relative="1" as="geometry" />
        </mxCell>
        <mxCell id="RgUEGCzLxgp7YQ4FfKnu-142" value="cols4 = cols2" style="rounded=0;whiteSpace=wrap;html=1;" vertex="1" parent="1">
          <mxGeometry x="-3070" y="3160" width="120" height="40" as="geometry" />
        </mxCell>
        <mxCell id="RgUEGCzLxgp7YQ4FfKnu-143" style="edgeStyle=orthogonalEdgeStyle;rounded=0;orthogonalLoop=1;jettySize=auto;html=1;entryX=0.5;entryY=0;entryDx=0;entryDy=0;" edge="1" parent="1" source="RgUEGCzLxgp7YQ4FfKnu-144" target="RgUEGCzLxgp7YQ4FfKnu-147">
          <mxGeometry relative="1" as="geometry" />
        </mxCell>
        <mxCell id="RgUEGCzLxgp7YQ4FfKnu-144" value="i = 0" style="rounded=0;whiteSpace=wrap;html=1;" vertex="1" parent="1">
          <mxGeometry x="-3070" y="3240" width="120" height="40" as="geometry" />
        </mxCell>
        <mxCell id="RgUEGCzLxgp7YQ4FfKnu-145" style="edgeStyle=orthogonalEdgeStyle;rounded=0;orthogonalLoop=1;jettySize=auto;html=1;" edge="1" parent="1" source="RgUEGCzLxgp7YQ4FfKnu-147" target="RgUEGCzLxgp7YQ4FfKnu-149">
          <mxGeometry relative="1" as="geometry" />
        </mxCell>
        <mxCell id="RgUEGCzLxgp7YQ4FfKnu-146" style="edgeStyle=orthogonalEdgeStyle;rounded=0;orthogonalLoop=1;jettySize=auto;html=1;entryX=0.5;entryY=0;entryDx=0;entryDy=0;" edge="1" parent="1" source="RgUEGCzLxgp7YQ4FfKnu-147" target="RgUEGCzLxgp7YQ4FfKnu-169">
          <mxGeometry relative="1" as="geometry">
            <mxPoint x="-3490" y="3670.000000000001" as="targetPoint" />
          </mxGeometry>
        </mxCell>
        <mxCell id="RgUEGCzLxgp7YQ4FfKnu-147" value="i &amp;lt; rows4" style="rhombus;whiteSpace=wrap;html=1;" vertex="1" parent="1">
          <mxGeometry x="-3055" y="3320" width="90" height="70" as="geometry" />
        </mxCell>
        <mxCell id="RgUEGCzLxgp7YQ4FfKnu-148" style="edgeStyle=orthogonalEdgeStyle;rounded=0;orthogonalLoop=1;jettySize=auto;html=1;entryX=0.5;entryY=0;entryDx=0;entryDy=0;" edge="1" parent="1" source="RgUEGCzLxgp7YQ4FfKnu-149" target="RgUEGCzLxgp7YQ4FfKnu-152">
          <mxGeometry relative="1" as="geometry" />
        </mxCell>
        <mxCell id="RgUEGCzLxgp7YQ4FfKnu-149" value="j = 0" style="rounded=0;whiteSpace=wrap;html=1;" vertex="1" parent="1">
          <mxGeometry x="-2950" y="3410" width="120" height="40" as="geometry" />
        </mxCell>
        <mxCell id="RgUEGCzLxgp7YQ4FfKnu-150" style="edgeStyle=orthogonalEdgeStyle;rounded=0;orthogonalLoop=1;jettySize=auto;html=1;entryX=0.5;entryY=0;entryDx=0;entryDy=0;" edge="1" parent="1" source="RgUEGCzLxgp7YQ4FfKnu-152" target="RgUEGCzLxgp7YQ4FfKnu-154">
          <mxGeometry relative="1" as="geometry" />
        </mxCell>
        <mxCell id="RgUEGCzLxgp7YQ4FfKnu-151" style="edgeStyle=orthogonalEdgeStyle;rounded=0;orthogonalLoop=1;jettySize=auto;html=1;entryX=0.5;entryY=0;entryDx=0;entryDy=0;exitX=0;exitY=0.5;exitDx=0;exitDy=0;" edge="1" parent="1" source="RgUEGCzLxgp7YQ4FfKnu-152" target="RgUEGCzLxgp7YQ4FfKnu-167">
          <mxGeometry relative="1" as="geometry" />
        </mxCell>
        <mxCell id="RgUEGCzLxgp7YQ4FfKnu-152" value="j &amp;lt; cols4" style="rhombus;whiteSpace=wrap;html=1;" vertex="1" parent="1">
          <mxGeometry x="-2935" y="3500" width="90" height="70" as="geometry" />
        </mxCell>
        <mxCell id="RgUEGCzLxgp7YQ4FfKnu-153" style="edgeStyle=orthogonalEdgeStyle;rounded=0;orthogonalLoop=1;jettySize=auto;html=1;entryX=0.5;entryY=0;entryDx=0;entryDy=0;" edge="1" parent="1" source="RgUEGCzLxgp7YQ4FfKnu-154" target="RgUEGCzLxgp7YQ4FfKnu-159">
          <mxGeometry relative="1" as="geometry" />
        </mxCell>
        <mxCell id="RgUEGCzLxgp7YQ4FfKnu-154" value="Matrix4[ i ][ j ] = 0" style="rounded=0;whiteSpace=wrap;html=1;" vertex="1" parent="1">
          <mxGeometry x="-2830" y="3570" width="120" height="40" as="geometry" />
        </mxCell>
        <mxCell id="RgUEGCzLxgp7YQ4FfKnu-155" style="edgeStyle=orthogonalEdgeStyle;rounded=0;orthogonalLoop=1;jettySize=auto;html=1;entryX=0.5;entryY=0;entryDx=0;entryDy=0;" edge="1" parent="1" source="RgUEGCzLxgp7YQ4FfKnu-157" target="RgUEGCzLxgp7YQ4FfKnu-161">
          <mxGeometry relative="1" as="geometry" />
        </mxCell>
        <mxCell id="RgUEGCzLxgp7YQ4FfKnu-156" style="edgeStyle=orthogonalEdgeStyle;rounded=0;orthogonalLoop=1;jettySize=auto;html=1;entryX=0.5;entryY=0;entryDx=0;entryDy=0;exitX=0;exitY=0.5;exitDx=0;exitDy=0;" edge="1" parent="1" source="RgUEGCzLxgp7YQ4FfKnu-157" target="RgUEGCzLxgp7YQ4FfKnu-165">
          <mxGeometry relative="1" as="geometry" />
        </mxCell>
        <mxCell id="RgUEGCzLxgp7YQ4FfKnu-157" value="k &amp;lt; cols1" style="rhombus;whiteSpace=wrap;html=1;" vertex="1" parent="1">
          <mxGeometry x="-2815" y="3760" width="90" height="70" as="geometry" />
        </mxCell>
        <mxCell id="RgUEGCzLxgp7YQ4FfKnu-158" style="edgeStyle=orthogonalEdgeStyle;rounded=0;orthogonalLoop=1;jettySize=auto;html=1;entryX=0.5;entryY=0;entryDx=0;entryDy=0;" edge="1" parent="1" source="RgUEGCzLxgp7YQ4FfKnu-159" target="RgUEGCzLxgp7YQ4FfKnu-157">
          <mxGeometry relative="1" as="geometry" />
        </mxCell>
        <mxCell id="RgUEGCzLxgp7YQ4FfKnu-159" value="k = 0" style="rounded=0;whiteSpace=wrap;html=1;" vertex="1" parent="1">
          <mxGeometry x="-2830" y="3650" width="120" height="40" as="geometry" />
        </mxCell>
        <mxCell id="RgUEGCzLxgp7YQ4FfKnu-160" style="edgeStyle=orthogonalEdgeStyle;rounded=0;orthogonalLoop=1;jettySize=auto;html=1;entryX=0.5;entryY=0;entryDx=0;entryDy=0;" edge="1" parent="1" source="RgUEGCzLxgp7YQ4FfKnu-161" target="RgUEGCzLxgp7YQ4FfKnu-163">
          <mxGeometry relative="1" as="geometry" />
        </mxCell>
        <mxCell id="RgUEGCzLxgp7YQ4FfKnu-161" value="Matrix4[ i ][ j ] += Matrix1[ i ][ k ] * Matrix2[ k ][ j ]" style="rounded=0;whiteSpace=wrap;html=1;" vertex="1" parent="1">
          <mxGeometry x="-2710" y="3860" width="260" height="40" as="geometry" />
        </mxCell>
        <mxCell id="RgUEGCzLxgp7YQ4FfKnu-162" style="edgeStyle=orthogonalEdgeStyle;rounded=0;orthogonalLoop=1;jettySize=auto;html=1;" edge="1" parent="1" source="RgUEGCzLxgp7YQ4FfKnu-163">
          <mxGeometry relative="1" as="geometry">
            <mxPoint x="-2770" y="3710" as="targetPoint" />
            <Array as="points">
              <mxPoint x="-2580" y="4010" />
              <mxPoint x="-2420" y="4010" />
              <mxPoint x="-2420" y="3710" />
            </Array>
          </mxGeometry>
        </mxCell>
        <mxCell id="RgUEGCzLxgp7YQ4FfKnu-163" value="k += 1" style="rounded=0;whiteSpace=wrap;html=1;" vertex="1" parent="1">
          <mxGeometry x="-2640" y="3940" width="120" height="40" as="geometry" />
        </mxCell>
        <mxCell id="RgUEGCzLxgp7YQ4FfKnu-164" style="edgeStyle=orthogonalEdgeStyle;rounded=0;orthogonalLoop=1;jettySize=auto;html=1;" edge="1" parent="1" source="RgUEGCzLxgp7YQ4FfKnu-165">
          <mxGeometry relative="1" as="geometry">
            <mxPoint x="-2890" y="3470" as="targetPoint" />
            <Array as="points">
              <mxPoint x="-2870" y="4060" />
              <mxPoint x="-2350" y="4060" />
              <mxPoint x="-2350" y="3470" />
            </Array>
          </mxGeometry>
        </mxCell>
        <mxCell id="RgUEGCzLxgp7YQ4FfKnu-165" value="j += 1" style="rounded=0;whiteSpace=wrap;html=1;" vertex="1" parent="1">
          <mxGeometry x="-2935" y="3900" width="120" height="40" as="geometry" />
        </mxCell>
        <mxCell id="RgUEGCzLxgp7YQ4FfKnu-166" style="edgeStyle=orthogonalEdgeStyle;rounded=0;orthogonalLoop=1;jettySize=auto;html=1;" edge="1" parent="1" source="RgUEGCzLxgp7YQ4FfKnu-167">
          <mxGeometry relative="1" as="geometry">
            <mxPoint x="-3010" y="3300" as="targetPoint" />
            <Array as="points">
              <mxPoint x="-2995" y="4130" />
              <mxPoint x="-2280" y="4130" />
              <mxPoint x="-2280" y="3300" />
            </Array>
          </mxGeometry>
        </mxCell>
        <mxCell id="RgUEGCzLxgp7YQ4FfKnu-167" value="i += 1" style="rounded=0;whiteSpace=wrap;html=1;" vertex="1" parent="1">
          <mxGeometry x="-3055" y="3610" width="120" height="40" as="geometry" />
        </mxCell>
        <mxCell id="RgUEGCzLxgp7YQ4FfKnu-168" style="edgeStyle=orthogonalEdgeStyle;rounded=0;orthogonalLoop=1;jettySize=auto;html=1;entryX=0.5;entryY=0;entryDx=0;entryDy=0;" edge="1" parent="1" source="RgUEGCzLxgp7YQ4FfKnu-169" target="RgUEGCzLxgp7YQ4FfKnu-171">
          <mxGeometry relative="1" as="geometry" />
        </mxCell>
        <mxCell id="RgUEGCzLxgp7YQ4FfKnu-169" value="OUTPUT &quot;Matrix1 x Matrix2 is :&quot;" style="shape=parallelogram;perimeter=parallelogramPerimeter;whiteSpace=wrap;html=1;fixedSize=1;" vertex="1" parent="1">
          <mxGeometry x="-3690" y="3400" width="220" height="60" as="geometry" />
        </mxCell>
        <mxCell id="RgUEGCzLxgp7YQ4FfKnu-170" style="edgeStyle=orthogonalEdgeStyle;rounded=0;orthogonalLoop=1;jettySize=auto;html=1;entryX=0.5;entryY=0;entryDx=0;entryDy=0;" edge="1" parent="1" source="RgUEGCzLxgp7YQ4FfKnu-171" target="RgUEGCzLxgp7YQ4FfKnu-174">
          <mxGeometry relative="1" as="geometry" />
        </mxCell>
        <mxCell id="RgUEGCzLxgp7YQ4FfKnu-171" value="i =0" style="rounded=0;whiteSpace=wrap;html=1;" vertex="1" parent="1">
          <mxGeometry x="-3640" y="3490" width="120" height="40" as="geometry" />
        </mxCell>
        <mxCell id="RgUEGCzLxgp7YQ4FfKnu-172" style="edgeStyle=orthogonalEdgeStyle;rounded=0;orthogonalLoop=1;jettySize=auto;html=1;entryX=0.5;entryY=0;entryDx=0;entryDy=0;" edge="1" parent="1" source="RgUEGCzLxgp7YQ4FfKnu-174" target="RgUEGCzLxgp7YQ4FfKnu-176">
          <mxGeometry relative="1" as="geometry" />
        </mxCell>
        <mxCell id="RgUEGCzLxgp7YQ4FfKnu-173" style="edgeStyle=orthogonalEdgeStyle;rounded=0;orthogonalLoop=1;jettySize=auto;html=1;entryX=0;entryY=0.5;entryDx=0;entryDy=0;" edge="1" parent="1" source="RgUEGCzLxgp7YQ4FfKnu-174" target="RgUEGCzLxgp7YQ4FfKnu-187">
          <mxGeometry relative="1" as="geometry">
            <mxPoint x="-3370" y="4240" as="targetPoint" />
            <Array as="points">
              <mxPoint x="-3690" y="3615" />
              <mxPoint x="-3690" y="4400" />
            </Array>
          </mxGeometry>
        </mxCell>
        <mxCell id="RgUEGCzLxgp7YQ4FfKnu-174" value="i &amp;lt; rows4" style="rhombus;whiteSpace=wrap;html=1;" vertex="1" parent="1">
          <mxGeometry x="-3625" y="3580" width="90" height="70" as="geometry" />
        </mxCell>
        <mxCell id="RgUEGCzLxgp7YQ4FfKnu-175" style="edgeStyle=orthogonalEdgeStyle;rounded=0;orthogonalLoop=1;jettySize=auto;html=1;entryX=0.5;entryY=0;entryDx=0;entryDy=0;" edge="1" parent="1" source="RgUEGCzLxgp7YQ4FfKnu-176" target="RgUEGCzLxgp7YQ4FfKnu-179">
          <mxGeometry relative="1" as="geometry" />
        </mxCell>
        <mxCell id="RgUEGCzLxgp7YQ4FfKnu-176" value="j =0" style="rounded=0;whiteSpace=wrap;html=1;" vertex="1" parent="1">
          <mxGeometry x="-3520" y="3660" width="120" height="40" as="geometry" />
        </mxCell>
        <mxCell id="RgUEGCzLxgp7YQ4FfKnu-177" style="edgeStyle=orthogonalEdgeStyle;rounded=0;orthogonalLoop=1;jettySize=auto;html=1;entryX=0.5;entryY=0;entryDx=0;entryDy=0;exitX=1;exitY=0.5;exitDx=0;exitDy=0;" edge="1" parent="1" source="RgUEGCzLxgp7YQ4FfKnu-179" target="RgUEGCzLxgp7YQ4FfKnu-181">
          <mxGeometry relative="1" as="geometry" />
        </mxCell>
        <mxCell id="RgUEGCzLxgp7YQ4FfKnu-178" style="edgeStyle=orthogonalEdgeStyle;rounded=0;orthogonalLoop=1;jettySize=auto;html=1;entryX=0.5;entryY=0;entryDx=0;entryDy=0;exitX=0;exitY=0.5;exitDx=0;exitDy=0;" edge="1" parent="1" source="RgUEGCzLxgp7YQ4FfKnu-179" target="RgUEGCzLxgp7YQ4FfKnu-185">
          <mxGeometry relative="1" as="geometry" />
        </mxCell>
        <mxCell id="RgUEGCzLxgp7YQ4FfKnu-179" value="j &amp;lt; cols4" style="rhombus;whiteSpace=wrap;html=1;" vertex="1" parent="1">
          <mxGeometry x="-3505" y="3750" width="90" height="70" as="geometry" />
        </mxCell>
        <mxCell id="RgUEGCzLxgp7YQ4FfKnu-180" style="edgeStyle=orthogonalEdgeStyle;rounded=0;orthogonalLoop=1;jettySize=auto;html=1;entryX=0.5;entryY=0;entryDx=0;entryDy=0;" edge="1" parent="1" source="RgUEGCzLxgp7YQ4FfKnu-181" target="RgUEGCzLxgp7YQ4FfKnu-183">
          <mxGeometry relative="1" as="geometry" />
        </mxCell>
        <mxCell id="RgUEGCzLxgp7YQ4FfKnu-181" value="OUTPUT Matrix4 [ i ][ j ]" style="shape=parallelogram;perimeter=parallelogramPerimeter;whiteSpace=wrap;html=1;fixedSize=1;" vertex="1" parent="1">
          <mxGeometry x="-3415" y="3840" width="170" height="60" as="geometry" />
        </mxCell>
        <mxCell id="RgUEGCzLxgp7YQ4FfKnu-182" style="edgeStyle=orthogonalEdgeStyle;rounded=0;orthogonalLoop=1;jettySize=auto;html=1;" edge="1" parent="1" source="RgUEGCzLxgp7YQ4FfKnu-183">
          <mxGeometry relative="1" as="geometry">
            <mxPoint x="-3460" y="3720" as="targetPoint" />
            <Array as="points">
              <mxPoint x="-3330" y="4050" />
              <mxPoint x="-3200" y="4050" />
              <mxPoint x="-3200" y="3720" />
            </Array>
          </mxGeometry>
        </mxCell>
        <mxCell id="RgUEGCzLxgp7YQ4FfKnu-183" value="j += 1" style="rounded=0;whiteSpace=wrap;html=1;" vertex="1" parent="1">
          <mxGeometry x="-3390" y="3950" width="120" height="50" as="geometry" />
        </mxCell>
        <mxCell id="RgUEGCzLxgp7YQ4FfKnu-184" style="edgeStyle=orthogonalEdgeStyle;rounded=0;orthogonalLoop=1;jettySize=auto;html=1;exitX=0.5;exitY=1;exitDx=0;exitDy=0;" edge="1" parent="1" source="RgUEGCzLxgp7YQ4FfKnu-185">
          <mxGeometry relative="1" as="geometry">
            <mxPoint x="-3580" y="3550" as="targetPoint" />
            <Array as="points">
              <mxPoint x="-3580" y="4130" />
              <mxPoint x="-3140" y="4130" />
              <mxPoint x="-3140" y="3550" />
            </Array>
          </mxGeometry>
        </mxCell>
        <mxCell id="RgUEGCzLxgp7YQ4FfKnu-185" value="i += 1" style="rounded=0;whiteSpace=wrap;html=1;" vertex="1" parent="1">
          <mxGeometry x="-3640" y="3860" width="120" height="40" as="geometry" />
        </mxCell>
        <mxCell id="RgUEGCzLxgp7YQ4FfKnu-186" style="edgeStyle=orthogonalEdgeStyle;rounded=0;orthogonalLoop=1;jettySize=auto;html=1;entryX=0.5;entryY=0;entryDx=0;entryDy=0;entryPerimeter=0;" edge="1" parent="1" source="RgUEGCzLxgp7YQ4FfKnu-187" target="RgUEGCzLxgp7YQ4FfKnu-3">
          <mxGeometry relative="1" as="geometry" />
        </mxCell>
        <mxCell id="RgUEGCzLxgp7YQ4FfKnu-187" value="" style="ellipse;whiteSpace=wrap;html=1;aspect=fixed;" vertex="1" parent="1">
          <mxGeometry x="-3020" y="4390" width="20" height="20" as="geometry" />
        </mxCell>
        <mxCell id="RgUEGCzLxgp7YQ4FfKnu-188" value="T" style="text;html=1;strokeColor=none;fillColor=none;align=center;verticalAlign=middle;whiteSpace=wrap;rounded=0;" vertex="1" parent="1">
          <mxGeometry x="920" y="1000" width="60" height="30" as="geometry" />
        </mxCell>
        <mxCell id="RgUEGCzLxgp7YQ4FfKnu-189" value="T" style="text;html=1;strokeColor=none;fillColor=none;align=center;verticalAlign=middle;whiteSpace=wrap;rounded=0;" vertex="1" parent="1">
          <mxGeometry x="1090" y="1220" width="60" height="30" as="geometry" />
        </mxCell>
        <mxCell id="RgUEGCzLxgp7YQ4FfKnu-190" value="F" style="text;html=1;strokeColor=none;fillColor=none;align=center;verticalAlign=middle;whiteSpace=wrap;rounded=0;" vertex="1" parent="1">
          <mxGeometry x="910" y="1220" width="60" height="30" as="geometry" />
        </mxCell>
        <mxCell id="RgUEGCzLxgp7YQ4FfKnu-191" value="F" style="text;html=1;strokeColor=none;fillColor=none;align=center;verticalAlign=middle;whiteSpace=wrap;rounded=0;" vertex="1" parent="1">
          <mxGeometry x="480" y="1000" width="60" height="30" as="geometry" />
        </mxCell>
        <mxCell id="RgUEGCzLxgp7YQ4FfKnu-192" value="T" style="text;html=1;strokeColor=none;fillColor=none;align=center;verticalAlign=middle;whiteSpace=wrap;rounded=0;" vertex="1" parent="1">
          <mxGeometry x="340" y="1500" width="60" height="30" as="geometry" />
        </mxCell>
        <mxCell id="RgUEGCzLxgp7YQ4FfKnu-193" value="F" style="text;html=1;strokeColor=none;fillColor=none;align=center;verticalAlign=middle;whiteSpace=wrap;rounded=0;" vertex="1" parent="1">
          <mxGeometry x="-70" y="1500" width="60" height="30" as="geometry" />
        </mxCell>
        <mxCell id="RgUEGCzLxgp7YQ4FfKnu-194" value="T" style="text;html=1;strokeColor=none;fillColor=none;align=center;verticalAlign=middle;whiteSpace=wrap;rounded=0;" vertex="1" parent="1">
          <mxGeometry x="500" y="1710" width="60" height="30" as="geometry" />
        </mxCell>
        <mxCell id="RgUEGCzLxgp7YQ4FfKnu-195" value="F" style="text;html=1;strokeColor=none;fillColor=none;align=center;verticalAlign=middle;whiteSpace=wrap;rounded=0;" vertex="1" parent="1">
          <mxGeometry x="322" y="1710" width="60" height="30" as="geometry" />
        </mxCell>
        <mxCell id="RgUEGCzLxgp7YQ4FfKnu-196" value="T" style="text;html=1;strokeColor=none;fillColor=none;align=center;verticalAlign=middle;whiteSpace=wrap;rounded=0;" vertex="1" parent="1">
          <mxGeometry x="-240" y="1815" width="60" height="30" as="geometry" />
        </mxCell>
        <mxCell id="RgUEGCzLxgp7YQ4FfKnu-197" value="T" style="text;html=1;strokeColor=none;fillColor=none;align=center;verticalAlign=middle;whiteSpace=wrap;rounded=0;" vertex="1" parent="1">
          <mxGeometry x="-100" y="2040" width="60" height="30" as="geometry" />
        </mxCell>
        <mxCell id="RgUEGCzLxgp7YQ4FfKnu-198" value="F" style="text;html=1;strokeColor=none;fillColor=none;align=center;verticalAlign=middle;whiteSpace=wrap;rounded=0;" vertex="1" parent="1">
          <mxGeometry x="-270" y="2040" width="60" height="30" as="geometry" />
        </mxCell>
        <mxCell id="RgUEGCzLxgp7YQ4FfKnu-199" value="F" style="text;html=1;strokeColor=none;fillColor=none;align=center;verticalAlign=middle;whiteSpace=wrap;rounded=0;" vertex="1" parent="1">
          <mxGeometry x="-645" y="1815" width="60" height="30" as="geometry" />
        </mxCell>
        <mxCell id="RgUEGCzLxgp7YQ4FfKnu-200" value="T" style="text;html=1;strokeColor=none;fillColor=none;align=center;verticalAlign=middle;whiteSpace=wrap;rounded=0;" vertex="1" parent="1">
          <mxGeometry x="-800" y="2130" width="60" height="30" as="geometry" />
        </mxCell>
        <mxCell id="RgUEGCzLxgp7YQ4FfKnu-201" value="T" style="text;html=1;strokeColor=none;fillColor=none;align=center;verticalAlign=middle;whiteSpace=wrap;rounded=0;" vertex="1" parent="1">
          <mxGeometry x="-670" y="2360" width="60" height="30" as="geometry" />
        </mxCell>
        <mxCell id="RgUEGCzLxgp7YQ4FfKnu-202" value="F" style="text;html=1;strokeColor=none;fillColor=none;align=center;verticalAlign=middle;whiteSpace=wrap;rounded=0;" vertex="1" parent="1">
          <mxGeometry x="-830" y="2360" width="60" height="30" as="geometry" />
        </mxCell>
        <mxCell id="RgUEGCzLxgp7YQ4FfKnu-203" value="F" style="text;html=1;strokeColor=none;fillColor=none;align=center;verticalAlign=middle;whiteSpace=wrap;rounded=0;" vertex="1" parent="1">
          <mxGeometry x="-1170" y="2130" width="60" height="30" as="geometry" />
        </mxCell>
        <mxCell id="RgUEGCzLxgp7YQ4FfKnu-204" value="T" style="text;html=1;strokeColor=none;fillColor=none;align=center;verticalAlign=middle;whiteSpace=wrap;rounded=0;" vertex="1" parent="1">
          <mxGeometry x="-1310" y="2550" width="60" height="30" as="geometry" />
        </mxCell>
        <mxCell id="RgUEGCzLxgp7YQ4FfKnu-205" value="T" style="text;html=1;strokeColor=none;fillColor=none;align=center;verticalAlign=middle;whiteSpace=wrap;rounded=0;" vertex="1" parent="1">
          <mxGeometry x="-1190" y="2760" width="60" height="30" as="geometry" />
        </mxCell>
        <mxCell id="RgUEGCzLxgp7YQ4FfKnu-206" value="F" style="text;html=1;strokeColor=none;fillColor=none;align=center;verticalAlign=middle;whiteSpace=wrap;rounded=0;" vertex="1" parent="1">
          <mxGeometry x="-1360" y="2760" width="60" height="30" as="geometry" />
        </mxCell>
        <mxCell id="RgUEGCzLxgp7YQ4FfKnu-207" value="F" style="text;html=1;strokeColor=none;fillColor=none;align=center;verticalAlign=middle;whiteSpace=wrap;rounded=0;" vertex="1" parent="1">
          <mxGeometry x="-1730" y="2550" width="60" height="30" as="geometry" />
        </mxCell>
        <mxCell id="RgUEGCzLxgp7YQ4FfKnu-208" value="T" style="text;html=1;strokeColor=none;fillColor=none;align=center;verticalAlign=middle;whiteSpace=wrap;rounded=0;" vertex="1" parent="1">
          <mxGeometry x="-1900" y="2870" width="60" height="30" as="geometry" />
        </mxCell>
        <mxCell id="RgUEGCzLxgp7YQ4FfKnu-209" value="F" style="text;html=1;strokeColor=none;fillColor=none;align=center;verticalAlign=middle;whiteSpace=wrap;rounded=0;" vertex="1" parent="1">
          <mxGeometry x="-2190" y="2870" width="60" height="30" as="geometry" />
        </mxCell>
        <mxCell id="RgUEGCzLxgp7YQ4FfKnu-210" value="F" style="text;html=1;strokeColor=none;fillColor=none;align=center;verticalAlign=middle;whiteSpace=wrap;rounded=0;" vertex="1" parent="1">
          <mxGeometry x="-1950" y="3080" width="60" height="30" as="geometry" />
        </mxCell>
        <mxCell id="RgUEGCzLxgp7YQ4FfKnu-211" value="T" style="text;html=1;strokeColor=none;fillColor=none;align=center;verticalAlign=middle;whiteSpace=wrap;rounded=0;" vertex="1" parent="1">
          <mxGeometry x="-1780" y="3081" width="60" height="30" as="geometry" />
        </mxCell>
        <mxCell id="RgUEGCzLxgp7YQ4FfKnu-212" value="T" style="text;html=1;strokeColor=none;fillColor=none;align=center;verticalAlign=middle;whiteSpace=wrap;rounded=0;" vertex="1" parent="1">
          <mxGeometry x="-2270" y="2981" width="60" height="30" as="geometry" />
        </mxCell>
        <mxCell id="RgUEGCzLxgp7YQ4FfKnu-213" value="F" style="text;html=1;strokeColor=none;fillColor=none;align=center;verticalAlign=middle;whiteSpace=wrap;rounded=0;" vertex="1" parent="1">
          <mxGeometry x="-2760" y="2982" width="60" height="30" as="geometry" />
        </mxCell>
        <mxCell id="RgUEGCzLxgp7YQ4FfKnu-214" value="T" style="text;html=1;strokeColor=none;fillColor=none;align=center;verticalAlign=middle;whiteSpace=wrap;rounded=0;" vertex="1" parent="1">
          <mxGeometry x="-2965" y="3325" width="60" height="30" as="geometry" />
        </mxCell>
        <mxCell id="RgUEGCzLxgp7YQ4FfKnu-215" value="F" style="text;html=1;strokeColor=none;fillColor=none;align=center;verticalAlign=middle;whiteSpace=wrap;rounded=0;" vertex="1" parent="1">
          <mxGeometry x="-3370" y="3326" width="60" height="30" as="geometry" />
        </mxCell>
        <mxCell id="RgUEGCzLxgp7YQ4FfKnu-216" value="T" style="text;html=1;strokeColor=none;fillColor=none;align=center;verticalAlign=middle;whiteSpace=wrap;rounded=0;" vertex="1" parent="1">
          <mxGeometry x="-2840" y="3500" width="60" height="30" as="geometry" />
        </mxCell>
        <mxCell id="RgUEGCzLxgp7YQ4FfKnu-217" value="F" style="text;html=1;strokeColor=none;fillColor=none;align=center;verticalAlign=middle;whiteSpace=wrap;rounded=0;" vertex="1" parent="1">
          <mxGeometry x="-2995" y="3501" width="60" height="30" as="geometry" />
        </mxCell>
        <mxCell id="RgUEGCzLxgp7YQ4FfKnu-218" value="T" style="text;html=1;strokeColor=none;fillColor=none;align=center;verticalAlign=middle;whiteSpace=wrap;rounded=0;" vertex="1" parent="1">
          <mxGeometry x="-2680" y="3760" width="60" height="30" as="geometry" />
        </mxCell>
        <mxCell id="RgUEGCzLxgp7YQ4FfKnu-219" value="F" style="text;html=1;strokeColor=none;fillColor=none;align=center;verticalAlign=middle;whiteSpace=wrap;rounded=0;" vertex="1" parent="1">
          <mxGeometry x="-2880" y="3761" width="60" height="30" as="geometry" />
        </mxCell>
        <mxCell id="RgUEGCzLxgp7YQ4FfKnu-220" value="T" style="text;html=1;strokeColor=none;fillColor=none;align=center;verticalAlign=middle;whiteSpace=wrap;rounded=0;" vertex="1" parent="1">
          <mxGeometry x="-3530" y="3581" width="60" height="30" as="geometry" />
        </mxCell>
        <mxCell id="RgUEGCzLxgp7YQ4FfKnu-221" value="F" style="text;html=1;strokeColor=none;fillColor=none;align=center;verticalAlign=middle;whiteSpace=wrap;rounded=0;" vertex="1" parent="1">
          <mxGeometry x="-3690" y="3582" width="60" height="30" as="geometry" />
        </mxCell>
        <mxCell id="RgUEGCzLxgp7YQ4FfKnu-222" value="T" style="text;html=1;strokeColor=none;fillColor=none;align=center;verticalAlign=middle;whiteSpace=wrap;rounded=0;" vertex="1" parent="1">
          <mxGeometry x="-3400" y="3750" width="60" height="30" as="geometry" />
        </mxCell>
        <mxCell id="RgUEGCzLxgp7YQ4FfKnu-223" value="F" style="text;html=1;strokeColor=none;fillColor=none;align=center;verticalAlign=middle;whiteSpace=wrap;rounded=0;" vertex="1" parent="1">
          <mxGeometry x="-3565" y="3760" width="60" height="30" as="geometry" />
        </mxCell>
      </root>
    </mxGraphModel>
  </diagram>
</mxfile>
